<svg width="38" height="38" viewBox="0 0 38 38" fill="none" xmlns="http://www.w3.org/2000/svg">
<path d="M34.307 26.125C32.9016 23.9127 31.2569 21.8618 29.4027 20.0094C29.3689 19.9673 29.3506 19.9149 29.3506 19.861C29.3506 19.807 29.3689 19.7547 29.4027 19.7125C30.9983 17.5346 32.4084 15.2268 33.6183 12.8132C33.7933 12.4678 33.8765 12.0832 33.8599 11.6964C33.8432 11.3095 33.7273 10.9335 33.5233 10.6044C33.3372 10.2699 33.0652 9.99124 32.7353 9.79709C32.4055 9.60294 32.0298 9.50039 31.647 9.50003H28.0845C27.6325 9.50881 27.1923 9.64644 26.8158 9.89677C26.4392 10.1471 26.142 10.4997 25.9589 10.9132C24.9241 13.2017 23.6841 15.3917 22.2539 17.4563V11.6375C22.2555 11.3564 22.2013 11.0777 22.0944 10.8177C21.9876 10.5576 21.8302 10.3214 21.6314 10.1226C21.4326 9.92378 21.1963 9.76639 20.9363 9.65953C20.6762 9.55267 20.3976 9.49846 20.1164 9.50003H14.9152C14.6124 9.50474 14.3166 9.59206 14.0598 9.75257C13.803 9.91308 13.595 10.1407 13.4581 10.4108C13.3212 10.6809 13.2607 10.9833 13.2831 11.2853C13.3055 11.5873 13.4099 11.8774 13.5852 12.1244L14.0602 12.7894C14.3149 13.1553 14.4517 13.5904 14.452 14.0363V18.5963C12.8845 16.2773 11.6381 13.7567 10.747 11.1032C10.5864 10.6356 10.2837 10.2298 9.88141 9.94242C9.47908 9.65504 8.99709 9.50039 8.50266 9.50003H5.59329C5.28416 9.50373 4.97986 9.57714 4.70305 9.71481C4.42624 9.85247 4.18408 10.0508 3.99459 10.2951C3.80511 10.5394 3.6732 10.8233 3.6087 11.1256C3.54419 11.4279 3.54875 11.7409 3.62204 12.0413C5.22516 18.8457 8.58579 24.4863 12.8489 27.4788C13.1044 27.6603 13.4213 27.7334 13.7305 27.6823C14.0397 27.6311 14.3161 27.4598 14.4995 27.2057C14.5913 27.0787 14.657 26.9349 14.6929 26.7825C14.7288 26.6301 14.7342 26.4721 14.7089 26.3176C14.6835 26.1631 14.6278 26.0151 14.545 25.8822C14.4622 25.7493 14.3539 25.6341 14.2264 25.5432C10.4977 22.9307 7.52891 17.955 6.02079 11.875H8.51454C9.60732 15.1952 11.2534 18.3067 13.3833 21.0782C13.6295 21.3927 13.9685 21.6216 14.3522 21.7325C14.7359 21.8434 15.1448 21.8305 15.5208 21.6957C15.9066 21.5612 16.2403 21.3088 16.4747 20.9742C16.7091 20.6396 16.8324 20.2398 16.827 19.8313V14.0363C16.8296 13.2814 16.6417 12.5381 16.2808 11.875H19.8433V18.3232C19.839 18.7845 19.9867 19.2345 20.2636 19.6036C20.5404 19.9728 20.931 20.2405 21.3752 20.3657C21.8061 20.5091 22.2722 20.5065 22.7015 20.3584C23.1308 20.2103 23.4994 19.9249 23.7502 19.5463C25.4369 17.1399 26.8771 14.5699 28.0489 11.875H31.3739C30.2421 14.1005 28.9357 16.2328 27.467 18.2519C27.0967 18.7473 26.9169 19.3594 26.9605 19.9764C27.0041 20.5934 27.2682 21.1741 27.7045 21.6125C29.4365 23.3579 30.9955 25.2668 32.3595 27.3125H28.3814C27.1542 25.2811 25.5062 23.5359 23.5483 22.1944C23.2545 21.9792 22.9063 21.8506 22.5432 21.8233C22.18 21.796 21.8165 21.8711 21.4939 22.04C21.1622 22.2098 20.8843 22.4686 20.6913 22.7874C20.4984 23.1062 20.398 23.4724 20.4014 23.845V26.6713C20.4079 26.8363 20.3493 26.9972 20.2382 27.1194C20.1272 27.2416 19.9725 27.3152 19.8077 27.3244H18.7864C18.4715 27.3244 18.1694 27.4495 17.9467 27.6722C17.724 27.8949 17.5989 28.197 17.5989 28.5119C17.5989 28.8269 17.724 29.1289 17.9467 29.3516C18.1694 29.5743 18.4715 29.6994 18.7864 29.6994H19.8077C20.2017 29.6963 20.5912 29.6154 20.9538 29.4614C21.3165 29.3074 21.6452 29.0833 21.921 28.802C22.1968 28.5206 22.4144 28.1876 22.5612 27.8219C22.708 27.4563 22.7811 27.0653 22.7764 26.6713V24.5694C24.2049 25.6439 25.4142 26.9822 26.3389 28.5119C26.5431 28.8657 26.835 29.1609 27.1866 29.3689C27.5381 29.5769 27.9374 29.6908 28.3458 29.6994H32.3595C32.77 29.7004 33.1731 29.5906 33.5263 29.3816C33.8795 29.1726 34.1698 28.8722 34.3664 28.5119C34.5681 28.1442 34.6689 27.7297 34.6585 27.3105C34.648 26.8912 34.5268 26.4822 34.307 26.125Z" fill="#BC0000"/>
</svg>
