<svg width="19" height="19" viewBox="0 0 19 19" fill="none" xmlns="http://www.w3.org/2000/svg">
<g clip-path="url(#clip0_49_21)">
<path d="M17.3268 4.72464C17.2918 4.67775 17.2479 4.6382 17.1977 4.60827C17.1474 4.57834 17.0917 4.5586 17.0338 4.55019C16.9759 4.54178 16.9169 4.54486 16.8602 4.55926C16.8035 4.57366 16.7502 4.59909 16.7033 4.6341L9.52044 9.99566C9.49475 10.0149 9.4635 10.0253 9.43138 10.0253C9.39926 10.0253 9.36801 10.0149 9.34232 9.99566L2.30045 4.61035C2.25395 4.57487 2.20093 4.5489 2.1444 4.53391C2.08787 4.51893 2.02895 4.51522 1.97099 4.52301C1.91303 4.5308 1.85717 4.54992 1.8066 4.5793C1.75603 4.60868 1.71174 4.64772 1.67627 4.69421C1.64079 4.74071 1.61482 4.79373 1.59983 4.85026C1.58484 4.90679 1.58114 4.96571 1.58893 5.02367C1.59672 5.08163 1.61584 5.13749 1.64522 5.18806C1.67459 5.23863 1.71364 5.28292 1.76013 5.31839L7.29685 9.55332L1.82099 13.6799C1.77382 13.7151 1.73404 13.7592 1.70392 13.8098C1.6738 13.8603 1.65394 13.9163 1.64546 13.9745C1.63698 14.0328 1.64006 14.0921 1.65451 14.1492C1.66897 14.2062 1.69452 14.2599 1.7297 14.307C1.76489 14.3542 1.80902 14.394 1.85958 14.4241C1.91014 14.4542 1.96613 14.4741 2.02437 14.4826C2.08261 14.491 2.14194 14.488 2.19899 14.4735C2.25604 14.4591 2.30968 14.4335 2.35685 14.3983L8.03162 10.1144L8.80052 10.7082C8.97981 10.8454 9.19892 10.9205 9.4247 10.9221C9.65047 10.9237 9.87063 10.8517 10.0519 10.7171L10.8594 10.1144L16.6009 14.3983C16.6478 14.4333 16.7011 14.4587 16.7578 14.4731C16.8145 14.4875 16.8735 14.4906 16.9314 14.4822C16.9893 14.4738 17.0449 14.454 17.0952 14.4241C17.1455 14.3942 17.1894 14.3547 17.2243 14.3078C17.2593 14.2609 17.2848 14.2076 17.2991 14.1509C17.3135 14.0942 17.3166 14.0352 17.3082 13.9773C17.2998 13.9194 17.2801 13.8637 17.2501 13.8135C17.2202 13.7632 17.1807 13.7193 17.1338 13.6843L11.603 9.55183L17.2362 5.34363C17.3297 5.27307 17.3915 5.16856 17.4085 5.05271C17.4254 4.93687 17.3961 4.81901 17.3268 4.72464Z" fill="#282828"/>
<path d="M16.7734 2.82031H2.22656C1.63604 2.82031 1.06971 3.0549 0.652145 3.47246C0.234584 3.89002 0 4.45635 0 5.04688L0 13.9531C0 14.5436 0.234584 15.11 0.652145 15.5275C1.06971 15.9451 1.63604 16.1797 2.22656 16.1797H16.7734C17.364 16.1797 17.9303 15.9451 18.3479 15.5275C18.7654 15.11 19 14.5436 19 13.9531V5.04688C19 4.45635 18.7654 3.89002 18.3479 3.47246C17.9303 3.0549 17.364 2.82031 16.7734 2.82031ZM18.1094 13.9531C18.1094 14.3074 17.9686 14.6472 17.7181 14.8978C17.4676 15.1483 17.1278 15.2891 16.7734 15.2891H2.22656C1.87225 15.2891 1.53245 15.1483 1.28191 14.8978C1.03138 14.6472 0.890625 14.3074 0.890625 13.9531V5.04688C0.890625 4.69256 1.03138 4.35276 1.28191 4.10222C1.53245 3.85169 1.87225 3.71094 2.22656 3.71094H16.7734C17.1278 3.71094 17.4676 3.85169 17.7181 4.10222C17.9686 4.35276 18.1094 4.69256 18.1094 5.04688V13.9531Z" fill="#282828" stroke="#282828" stroke-width="0.5"/>
</g>
<defs>
<clipPath id="clip0_49_21">
<rect width="19" height="19" fill="white"/>
</clipPath>
</defs>
</svg>
