<svg width="19" height="19" viewBox="0 0 19 19" fill="none" xmlns="http://www.w3.org/2000/svg">
<g clip-path="url(#clip0_49_39)">
<path d="M18.7776 9.37749C18.7739 10.9843 18.4251 12.4019 17.72 13.7193C17.0557 14.9625 16.1391 15.9978 14.985 16.8142C13.972 17.5304 12.8624 18.0203 11.6489 18.2726C10.3055 18.5509 8.96219 18.5212 7.62996 18.2021C6.92488 18.0314 6.24949 17.7716 5.61492 17.4265C5.50731 17.3671 5.41453 17.3634 5.29949 17.4005C3.90047 17.8496 2.50145 18.2949 1.10242 18.7402C0.942851 18.7921 0.786992 18.8404 0.627422 18.8998C0.516094 18.9406 0.508672 18.8998 0.538359 18.807C0.70164 18.3283 0.861211 17.8496 1.02449 17.3671C1.37332 16.3244 1.72215 15.2816 2.0784 14.2425C2.12664 14.1052 2.05613 14.0162 2.00047 13.9197C1.56258 13.1589 1.25086 12.35 1.05789 11.4964C0.638554 9.65581 0.786992 7.8523 1.49207 6.10445C1.90027 5.09507 2.48289 4.1896 3.22879 3.38804C4.17879 2.36382 5.3032 1.6105 6.60203 1.10581C7.81551 0.634525 9.06981 0.452689 10.3612 0.530619C12.1313 0.638236 13.7419 1.22456 15.1557 2.29331C16.9852 3.67378 18.1356 5.48843 18.5958 7.74097C18.7182 8.31617 18.7628 8.89878 18.7776 9.37749ZM9.74149 2.03355C9.39637 2.0187 8.99188 2.05953 8.58738 2.1189C8.42781 2.14117 8.27195 2.17456 8.1161 2.21538C5.70399 2.82769 3.97098 4.26753 2.95047 6.53492C2.36043 7.84488 2.20086 9.22906 2.42352 10.6466C2.59793 11.7673 3.01355 12.799 3.66297 13.7304C3.73348 13.8343 3.74461 13.9234 3.70379 14.0384C3.42918 14.8437 3.16199 15.6527 2.89109 16.4617C2.87625 16.5062 2.83172 16.5582 2.87254 16.599C2.91336 16.6435 2.96531 16.5953 3.00984 16.5804C3.82254 16.3207 4.63524 16.0646 5.44051 15.7937C5.62606 15.7306 5.75965 15.7603 5.91922 15.8568C7.74129 16.9515 9.68953 17.241 11.7417 16.6955C13.3003 16.2835 14.5843 15.4337 15.6011 14.1794C16.5845 12.966 17.1337 11.5781 17.245 10.0269C17.3304 8.8357 17.1448 7.67788 16.6698 6.57203C16.0723 5.18042 15.1409 4.06714 13.8829 3.2396C12.6509 2.43062 11.2889 2.01499 9.74149 2.03355Z" fill="#282828"/>
<path d="M5.31055 7.33275C5.32539 6.49779 5.65195 5.81126 6.29023 5.27689C6.47207 5.12474 6.69102 5.06165 6.93223 5.10247C7.03613 5.11732 7.14375 5.13216 7.24395 5.12103C7.49629 5.10247 7.64102 5.24349 7.71895 5.4513C7.95645 6.07474 8.18652 6.70189 8.42031 7.32533C8.46484 7.44408 8.45371 7.55169 8.39805 7.66302C8.25332 7.96361 8.02324 8.1974 7.79316 8.43119C7.59277 8.63529 7.58164 8.70208 7.71895 8.95072C8.3832 10.1531 9.2998 11.0882 10.5689 11.656C10.632 11.682 10.6877 11.7265 10.7471 11.7525C10.9066 11.8304 11.0514 11.823 11.185 11.6857C11.4447 11.4222 11.6859 11.1402 11.9197 10.8507C12.1016 10.6244 12.1869 10.591 12.443 10.706C13.0664 10.9954 13.6602 11.3331 14.265 11.6597C14.4654 11.7673 14.4877 11.9158 14.458 12.1867C14.3355 13.2888 13.4932 13.7898 12.532 13.9494C12.2092 14.0013 11.9049 13.9716 11.6006 13.8751C10.71 13.5931 9.83418 13.2665 9.04746 12.7544C8.3127 12.2757 7.68184 11.6783 7.12891 10.9992C6.59082 10.3349 6.11211 9.63353 5.71504 8.87279C5.49238 8.43861 5.31055 7.76322 5.31055 7.33275Z" fill="#282828"/>
</g>
<defs>
<clipPath id="clip0_49_39">
<rect width="19" height="19" fill="white"/>
</clipPath>
</defs>
</svg>
