<svg width="30" height="30" viewBox="0 0 30 30" fill="none" xmlns="http://www.w3.org/2000/svg">
<path d="M21.3717 11.7237C21.3838 11.6058 21.2913 11.5033 21.1728 11.5033H17.3489V8.85009C17.3489 7.85367 18.0093 7.62137 18.4744 7.62137C18.8568 7.62137 20.5469 7.62137 21.1304 7.62137C21.2408 7.62137 21.3293 7.53182 21.3293 7.42137V3.44015C21.3293 3.33 21.2402 3.24058 21.13 3.24015L17.3976 3.22559C13.033 3.22559 12.0397 6.49266 12.0397 8.58339V11.5033H9.71562C9.60517 11.5033 9.51562 11.5929 9.51562 11.7033V15.8171C9.51562 15.9276 9.60517 16.0171 9.71563 16.0171H12.0397C12.0397 21.2361 12.0397 27.4186 12.0397 28.5921C12.0397 28.7026 12.1293 28.7896 12.2397 28.7896H17.1489C17.2593 28.7896 17.3489 28.7024 17.3489 28.592C17.3489 27.4122 17.3489 21.1766 17.3489 16.0171H20.7508C20.8533 16.0171 20.9393 15.9395 20.9497 15.8375L21.3717 11.7237Z" stroke="#17C1BC" stroke-width="2"/>
</svg>
